<svg version="1.0" id="Layer_1" xmlns="http://www.w3.org/2000/svg" xmlns:xlink="http://www.w3.org/1999/xlink" x="0px" y="0px" width="20px" height="20px" viewBox="0 0 20 20" enable-background="new 0 0 20 20" xml:space="preserve">
  <g>
    <polygon fill="#454545" points="0,0 0,3 0,6 3,6 3,3 6,3 6,0 3,0"/>
    <polygon fill="#454545" points="3,14 0,14 0,17 0,20 3,20 6,20 6,17 3,17"/>
    <polygon fill="#454545" points="17,0 14,0 14,3 17,3 17,6 20,6 20,3 20,0"/>
    <polygon fill="#454545" points="17,17 14,17 14,20 17,20 20,20 20,17 20,14 17,14"/>
  </g>
</svg>
