<svg version="1" xmlns="http://www.w3.org/2000/svg" width="459.754" height="79.805"><path d="M44.466 21.738c-3.572-2.979-8.139-4.963-12.902-4.963-3.572 0-8.338 2.084-8.338 6.253 0 4.368 5.261 6.055 8.636 7.146l4.964 1.489C47.248 34.74 55.287 40 55.287 52.11c0 7.445-1.787 15.088-7.742 20.149-5.855 4.964-13.697 7.048-21.24 7.048-9.43 0-18.661-3.177-26.305-8.537l8.338-15.683c4.865 4.269 10.621 7.742 17.271 7.742 4.566 0 9.43-2.283 9.43-7.545 0-5.459-7.643-7.345-11.812-8.535-12.208-3.475-20.249-6.648-20.249-21.142C2.978 10.419 13.796.495 28.785.495c7.543 0 16.775 2.382 23.426 6.154l-7.745 15.089zm47.365-2.779v12.506h21.937v16.479H91.831v12.899h23.127v16.479H72.376V2.483h42.582V18.96l-23.127-.001zm37.586-16.477h27.594c20.844 0 38.016 16.377 38.016 37.419 0 21.041-17.271 37.42-38.016 37.42h-27.594V2.482zm19.455 58.364h4.367c11.612 0 21.539-6.352 21.539-20.942 0-13.4-8.834-20.943-21.341-20.943h-4.565v41.885zm138.001-22.333c0 24.219-17.371 41.292-41.394 41.292-24.02 0-41.391-17.071-41.391-41.292C204.089 15.881 223.941 0 245.479 0c21.54 0 41.394 15.881 41.394 38.513zm-62.534.099c0 12.905 9.529 22.333 21.141 22.333 11.613 0 21.144-9.43 21.144-22.333 0-10.323-9.526-19.752-21.144-19.752-11.613 0-21.141 9.43-21.141 19.752zm72.899-36.13h19.454l35.636 45.757h.196V2.482h19.453v74.839h-19.453L316.89 31.465h-.197v45.856h-19.454V2.482zm110.107 61.837l-5.16 13.002h-20.646l28.785-74.839h21.242l28.188 74.839h-20.745l-4.862-13.002h-26.802zm13.6-38.71h-.199l-8.039 23.824h16.178l-7.94-23.824z" fill="#FFF"/></svg>