<svg version="1.0" id="Layer_1" xmlns="http://www.w3.org/2000/svg" xmlns:xlink="http://www.w3.org/1999/xlink" x="0px" y="0px" width="459.754px" height="79.805px" viewBox="0 0 459.754 79.805" enable-background="new 0 0 459.754 79.805" xml:space="preserve">
  <g>
    <path fill="#FFFFFF" d="M44.466,21.738c-3.572-2.979-8.139-4.963-12.902-4.963c-3.572,0-8.338,2.084-8.338,6.253 c0,4.368,5.261,6.055,8.636,7.146l4.964,1.489C47.248,34.74,55.287,40,55.287,52.11c0,7.445-1.787,15.088-7.742,20.149 c-5.855,4.964-13.697,7.048-21.24,7.048c-9.43,0-18.661-3.177-26.305-8.537l8.338-15.683c4.865,4.269,10.621,7.742,17.271,7.742 c4.566,0,9.43-2.283,9.43-7.545c0-5.459-7.643-7.345-11.812-8.535C11.019,43.274,2.978,40.101,2.978,25.607 c0-15.188,10.818-25.112,25.807-25.112c7.543,0,16.775,2.382,23.426,6.154L44.466,21.738z"/>
    <path fill="#FFFFFF" d="M91.831,18.959v12.506h21.937v16.479H91.831v12.899h23.127v16.479H72.376V2.483h42.582V18.96L91.831,18.959 L91.831,18.959z"/>
    <path fill="#FFFFFF" d="M129.417,2.482h27.594c20.844,0,38.016,16.377,38.016,37.419c0,21.041-17.271,37.42-38.016,37.42h-27.594 V2.482z M148.872,60.846h4.367c11.612,0,21.539-6.352,21.539-20.942c0-13.4-8.834-20.943-21.341-20.943h-4.565V60.846z"/>
    <path fill="#FFFFFF" d="M286.873,38.513c0,24.219-17.371,41.292-41.394,41.292c-24.02,0-41.391-17.071-41.391-41.292 C204.089,15.881,223.941,0,245.479,0C267.019,0,286.873,15.881,286.873,38.513z M224.339,38.612 c0,12.905,9.529,22.333,21.141,22.333c11.613,0,21.144-9.43,21.144-22.333c0-10.323-9.526-19.752-21.144-19.752 C233.867,18.86,224.339,28.29,224.339,38.612z"/>
    <path fill="#FFFFFF" d="M297.238,2.482h19.454l35.636,45.757h0.196V2.482h19.453v74.839h-19.453L316.89,31.465h-0.197v45.856 h-19.454V2.482z"/>
    <path fill="#FFFFFF" d="M407.345,64.319l-5.16,13.002h-20.646l28.785-74.839h21.242l28.188,74.839h-20.745l-4.862-13.002H407.345z M420.945,25.609h-0.199l-8.039,23.824h16.178L420.945,25.609z"/>
  </g>
</svg>
