<svg version="1.1" id="Layer_1" xmlns="http://www.w3.org/2000/svg" xmlns:xlink="http://www.w3.org/1999/xlink" x="0px" y="0px" width="459.754px" height="350.074px" viewBox="0 0 459.754 350.074" enable-background="new 0 0 459.754 350.074" xml:space="preserve">
  <g>
    <path fill="#766458" d="M165.422,70.001l-0.203,0.229c-1.353,1.469-3.022,2.188-4.521,2.217l2.822-4.865 c1.813-3.139,0.144-6.104-2.679-6.104c-2.303,0-4.088,0.92-5.815,3.916l-1.468,2.562l-1.227,2.098l-0.154,0.177 c-2.159,2.506-4.262,4.491-5.586,4.491c-0.662,0-1.037-0.461-0.346-1.641l6.422-11.201h2.446l0.864-1.44h-2.477l2.822-4.893h-2.994 l-2.822,4.895h-2.707l-0.864,1.44h2.735l-6.019,10.423c-1.267,2.217-0.374,4.262,2.044,4.262c1.739,0,3.662-1.309,5.512-3.084 c-0.006,3.816,5.297,4.562,8.539,0.463h0.661c1.785,0,4.606-1.094,6.134-2.907C166.342,70.634,165.825,70.174,165.422,70.001z M159.03,70.204h-0.145c-0.979,0-1.756,0.806-1.756,1.785c0,0.373,0.115,0.72,0.289,1.009l-0.029,0.057 c-1.411,2.419-4.838,1.958-3.053-1.151l2.274-3.944l1.44-2.447c2.102-3.569,4.98-2.159,3.166,0.95L159.03,70.204z"/>
    <path fill="#766458" d="M206.877,70.001l-0.201,0.229c-2.16,2.506-4.924,4.491-7.025,4.491c-1.844,0-2.938-1.151-1.555-3.569 l0.287-0.52c1.93,0.807,5.558,0.432,7.804-3.455l0.432-0.749c1.612-2.764,0.058-4.837-2.39-4.837c-2.419,0-4.348,1.268-5.615,3.455 l-2.906,4.984l-0.173,0.199c-2.159,2.504-4.261,4.49-5.586,4.49c-0.661,0-1.036-0.461-0.346-1.641l4.319-7.571c1.295-2.274,0.059-3.916-1.612-3.916c-1.296,0-2.679,0.72-4.175,2.274l4.779-8.32h-2.994l-8.354,14.492l-0.168,0.191 c-2.159,2.506-4.261,4.491-5.586,4.491c-0.662,0-1.037-0.461-0.345-1.641l6.42-11.201h2.447l0.864-1.44h-2.476l2.822-4.893h-2.994 l-2.822,4.895h-2.706l-0.864,1.44h2.735l-6.019,10.423c-1.267,2.217-0.373,4.262,2.045,4.262c1.213,0,2.517-0.639,3.821-1.627 l-0.771,1.338h3.022l4.55-7.916c4.606-5.789,6.65-5.039,5.354-2.822l-3.888,6.767c-1.267,2.218-0.373,4.263,2.045,4.263 c1.781,0,3.757-1.375,5.646-3.217c0.145,1.864,1.653,3.217,4.055,3.217c3.396,0,6.766-2.649,9.242-5.529 C207.799,70.634,207.281,70.174,206.877,70.001z M201.176,65.797c1.729-2.965,4.781-2.477,2.996,0.634l-0.433,0.749 c-1.438,2.447-3.368,2.391-4.491,1.987L201.176,65.797z"/>
    <path fill="#766458" d="M316.047,70.001l-0.201,0.229c-1.096,1.295-2.42,2.447-3.601,3.254c0.95-2.851,0.749-7.228,2.593-11.057 l-2.246-1.209c-1.238,1.699-3.944,5.615-6.651,8.782l0.001,0.001l-0.201,0.229c-2.158,2.506-4.261,4.491-5.586,4.491 c-0.662,0-1.036-0.461-0.345-1.641l6.392-11.201h-2.994l-5.326,9.3c-2.274,2.072-4.031,3.225-4.606,2.965 c-0.749-0.315,0-1.438,0.374-2.072l5.845-10.192H296.5l-4.695,8.124l-0.197,0.227c-1.354,1.469-3.023,2.188-4.521,2.217 l2.821-4.865c1.813-3.139,0.146-6.104-2.678-6.104c-2.304,0-4.089,0.92-5.815,3.916l-1.469,2.562l-1.227,2.097l-0.154,0.178 c-2.159,2.506-4.924,4.491-7.025,4.491c-1.843,0-2.938-1.151-1.555-3.569l0.288-0.52c1.929,0.807,5.558,0.432,7.803-3.455 l0.433-0.749c1.611-2.764,0.058-4.837-2.391-4.837c-2.419,0-4.348,1.268-5.615,3.455l-2.904,4.984l-0.174,0.199 c-2.477,2.851-4.606,4.691-6.969,5.699l6.709-11.459h-1.757c0-1.238-1.267-2.879-3.138-2.879c-1.612,0-3.858,1.268-5.126,3.455 l-2.871,4.957c-0.002-0.001-0.005-0.003-0.007-0.004l-0.201,0.23c-2.159,2.504-4.262,4.49-5.586,4.49 c-0.662,0-1.036-0.461-0.346-1.641l2.994-5.241c1.036-1.813,0.547-2.879-0.433-4.06l-1.67-2.017 c-0.433-0.547-0.433-1.151,0.173-1.728l-1.555-1.699c-1.699,1.525-1.844,3.225-0.777,4.607l0.26,0.346 c-1.324,1.872-3.109,4.404-5.068,6.709L242.059,70l-0.2,0.229c-1.354,1.467-3.022,2.188-4.521,2.217l2.82-4.866 c1.814-3.138,0.145-6.104-2.678-6.104c-2.303,0-4.088,0.922-5.814,3.916l-1.47,2.562l-1.228,2.101l-0.152,0.175 c-2.477,2.851-4.607,4.691-6.969,5.699l6.709-11.459h-1.756c0-1.238-1.267-2.879-3.139-2.879c-1.611,0-3.857,1.268-5.125,3.455 l-4.203,7.256c-1.268,2.217-0.375,4.262,2.043,4.262c0.836,0,1.844-0.375,2.852-1.008l-0.835,1.41 c-4.031,1.238-6.565,2.879-6.565,5.125c0,2.88,4.405,3.484,6.565-0.201l2.274-3.945c2.396-0.746,4.743-2.155,7.18-4.481 c-0.021,3.832,5.294,4.585,8.539,0.479h0.662c1.785,0,4.607-1.094,6.133-2.908l0,0c1.438-1.67,2.562-3.168,4.951-6.42l0.402,0.49 c0.374,0.489,0.52,1.094,0.174,1.698l-3.168,5.5c-1.268,2.218-0.375,4.263,2.045,4.263c1.518,0,3.176-0.998,4.801-2.431 c-0.049,1.392,0.879,2.431,2.598,2.431c0.835,0,1.843-0.375,2.852-1.009L257,76.966c-4.031,1.238-6.563,2.879-6.563,5.125 c0,2.88,4.405,3.483,6.563-0.201l2.274-3.944c2.44-0.762,4.83-2.215,7.315-4.617c0.133,1.875,1.646,3.236,4.057,3.236 c2.438,0,4.859-1.367,6.947-3.201c-0.117,3.92,5.267,4.721,8.541,0.58h0.662c0.938,0,2.158-0.309,3.33-0.856 c-0.806,2.081-0.063,3.478,1.649,3.478c1.642,0,3.483-1.498,4.923-2.879c-0.288,1.611,0.662,2.879,2.562,2.879c2.477,0,5.326-2.648,7.804-5.528l-0.001-0.001c1.697-1.959,3.195-4.059,4.261-5.469c-1.181,3.108-0.548,8.694-3.397,8.694 c-1.008,0-1.41-1.094-1.41-1.094l-1.872,0.979c0,0,0.547,2.42,3.282,2.42c0.287,0,0.548-0.029,0.834-0.06 c0.029,0,0.059-0.028,0.088-0.028c3.052-0.402,6.074-2.82,8.32-5.441C316.997,70.577,316.478,70.116,316.047,70.001z M273.064,65.797c1.728-2.965,4.778-2.477,2.993,0.634l-0.432,0.749c-1.439,2.447-3.369,2.391-4.492,1.987L273.064,65.797z M215.887,81.403c-0.633,1.123-1.641,0.951-1.641,0.145c0-0.777,0.721-1.67,2.994-2.562L215.887,81.403z M217.27,74.723 c-0.662,0-1.037-0.461-0.346-1.641l4.176-7.285c1.611-2.793,4.809-2.073,3.34,0.634l-2.273,3.974 C220.351,73.313,218.537,74.723,217.27,74.723z M235.667,70.204h-0.145c-0.979,0-1.756,0.806-1.756,1.785 c0,0.373,0.115,0.72,0.287,1.009l-0.028,0.057c-1.41,2.419-4.837,1.958-3.052-1.151l2.273-3.944l1.439-2.447 c2.104-3.569,4.98-2.159,3.168,0.95L235.667,70.204z M254.494,81.403c-0.634,1.123-1.642,0.951-1.642,0.145 c0-0.777,0.72-1.67,2.994-2.562L254.494,81.403z M255.875,74.723c-0.662,0-1.035-0.461-0.346-1.641l4.176-7.285 c1.612-2.793,4.809-2.073,3.34,0.634l-2.274,3.974C258.958,73.313,257.141,74.723,255.875,74.723z M285.415,70.204h-0.145 c-0.979,0-1.756,0.806-1.756,1.785c0,0.373,0.115,0.72,0.287,1.009l-0.028,0.057c-1.41,2.419-4.837,1.958-3.052-1.151l2.273-3.944 l1.439-2.447c2.103-3.569,4.98-2.159,3.168,0.95L285.415,70.204z"/>
  </g>
  <rect x="101.422" y="66.823" fill="#766458" width="28.918" height="1.957"/>
  <rect x="328.422" y="66.823" fill="#766458" width="28.918" height="1.957"/>
  <g>
    <path fill="#81B3D3" d="M163.183,0h7.707l-1.209,44.918h-14.525l-1.975-18.545l-1.975,18.545h-14.589L135.471,0h7.645l0.637,37.152h0.828L149.359,0h7.581l4.906,37.152h0.765L163.183,0z"/>
    <path fill="#81B3D3" d="M195.034,37.152v7.766h-20.896V0h20.896v7.7h-13.251v10.844h10.575v7.7h-10.575v10.908H195.034z"/>
    <path fill="#81B3D3" d="M216.373,37.152v7.766h-18.283V0h7.646v37.152H216.373z"/>
    <path fill="#81B3D3" d="M232.617,28.361l7.708-1.797v13.604c0,2.567-2.166,4.749-4.714,4.749h-11.469 c-2.611,0-4.713-2.182-4.713-4.749V4.749c0-2.632,2.103-4.749,4.713-4.749h11.468c2.548,0,4.714,2.117,4.714,4.749v9.112 l-7.708,1.796V7.7h-5.543v29.452h5.543L232.617,28.361L232.617,28.361z"/>
    <path fill="#81B3D3" d="M261.089,0c2.549,0,4.715,2.117,4.715,4.749v35.42c0,2.567-2.166,4.749-4.715,4.749h-11.468 c-2.61,0-4.714-2.182-4.714-4.749V4.749c0-2.631,2.104-4.749,4.714-4.749H261.089z M258.095,7.7h-5.543v29.452h5.543V7.7z"/>
    <path fill="#81B3D3" d="M290.837,0h7.58v44.918h-7.645V22.844l-3.059,11.422h-7.453l-2.994-11.422v22.074h-7.646V0h7.581 l6.816,21.688L290.837,0z"/>
    <path fill="#81B3D3" d="M323.134,37.152v7.766h-20.896V0h20.896v7.7h-13.252v10.844h10.575v7.7h-10.575v10.908H323.134z"/>
  </g>
  <g>
    <path fill="#FFFFFF" d="M44.467,157.61c-3.572-2.979-8.139-4.963-12.902-4.963c-3.572,0-8.338,2.084-8.338,6.253 c0,4.368,5.261,6.055,8.636,7.146l4.964,1.489c10.422,3.077,18.461,8.337,18.461,20.447c0,7.445-1.787,15.088-7.742,20.15 c-5.855,4.963-13.697,7.047-21.24,7.047c-9.43,0-18.661-3.176-26.305-8.537l8.338-15.682c4.865,4.268,10.621,7.742,17.271,7.742 c4.566,0,9.43-2.283,9.43-7.545c0-5.459-7.643-7.344-11.812-8.535c-12.208-3.475-20.249-6.65-20.249-21.143 c0-15.188,10.818-25.112,25.807-25.112c7.543,0,16.775,2.382,23.426,6.154L44.467,157.61z"/>
    <path fill="#FFFFFF" d="M91.832,154.831v12.506h21.937v16.479H91.832v12.9h23.127v16.479H72.377v-74.84h42.582v16.477H91.832z"/>
    <path fill="#FFFFFF" d="M129.418,138.354h27.594c20.844,0,38.016,16.377,38.016,37.42c0,21.041-17.271,37.42-38.016,37.42h-27.594 V138.354z M148.873,196.718h4.367c11.612,0,21.539-6.352,21.539-20.943c0-13.4-8.834-20.943-21.341-20.943h-4.565V196.718z"/>
    <path fill="#FFFFFF" d="M286.874,174.385c0,24.219-17.371,41.292-41.393,41.292c-24.02,0-41.391-17.072-41.391-41.292 c0-22.632,19.852-38.513,41.391-38.513S286.874,151.753,286.874,174.385z M224.34,174.484c0,12.904,9.529,22.333,21.141,22.333 c11.613,0,21.143-9.43,21.143-22.333c0-10.323-9.527-19.752-21.143-19.752C233.868,154.732,224.34,164.162,224.34,174.484z"/>
    <path fill="#FFFFFF" d="M297.239,138.354h19.455l35.635,45.758h0.197v-45.758h19.453v74.84h-19.453l-35.635-45.857h-0.197v45.857 h-19.455V138.354z"/>
    <path fill="#FFFFFF" d="M407.346,200.192l-5.16,13.002H381.54l28.785-74.84h21.242l28.188,74.84H439.01l-4.863-13.002H407.346z M420.946,161.481h-0.199l-8.039,23.823h16.178L420.946,161.481z"/>
  </g>
  <g>
    <path fill="#FFFFFF" d="M108.081,287.741c7.658-2.589,8.242-12.181,0.693-12.181c-2.079,0-4.559,1.459-6.272,4.449L92.29,297.66 c-0.475,0.839-0.947,1.532-1.458,2.151c-2.626-3.61-1.86-9.007,1.823-11.378l-1.532-1.934c-7.95,5.069-5.616,19.693,7.659,19.693 C110.124,306.194,115.375,292.592,108.081,287.741z M98.709,303.276c-2.261,0-4.048-0.511-5.47-1.312 c0.656-0.767,1.312-1.715,1.896-2.699l6.381-11.05l1.021,0.108C111.437,290.185,107.899,303.276,98.709,303.276z M102.793,285.99 l3.063-5.251c2.771-4.776,6.309-1.969,4.412,1.604C108.812,285.078,106.659,285.917,102.793,285.99z"/>
    <path fill="#FFFFFF" d="M140.161,300.002c-0.629,2.248,0.572,4.076,3.146,4.076c1.531,0,3.428-0.984,5.25-2.479 c0.184,1.459,1.351,2.479,3.283,2.479c2.02,0,4.234-1.395,6.393-3.357c-0.42,2.048,0.541,3.357,2.41,3.357 c2.08,0,4.414-1.896,6.236-3.646c-0.365,2.042,0.84,3.646,3.246,3.646c3.137,0,6.747-3.354,9.883-7.002 c-0.025-0.05-0.068-0.102-0.101-0.151c2.097-2.438,3.946-5.026,5.269-6.777c-1.496,3.938-0.693,11.014-4.305,11.014 c-1.275,0-1.787-1.386-1.787-1.386l-2.371,1.24c0,0,0.693,3.062,4.157,3.062c0.365,0,0.692-0.037,1.058-0.072 c0.037,0,0.073-0.036,0.109-0.036c2.786-0.368,5.55-2.064,7.943-4.225c0.058,2.495,1.994,4.333,5.145,4.333 c4.303,0,8.57-3.354,11.707-7.002c-0.255-0.511-0.912-1.094-1.422-1.312l-0.255,0.292c-2.735,3.172-6.236,5.688-8.897,5.688 c-2.334,0-3.721-1.459-1.97-4.521l0.365-0.657c2.442,1.021,7.038,0.547,9.883-4.376l0.547-0.948 c2.042-3.501,0.073-6.127-3.026-6.127c-3.063,0-5.508,1.605-7.111,4.376l-3.684,6.318c-0.035-0.012-0.07-0.037-0.104-0.046 l-0.255,0.292c-1.387,1.641-3.063,3.1-4.559,4.121c1.203-3.61,0.948-9.153,3.282-14.004l-2.844-1.532 c-1.568,2.151-4.996,7.111-8.425,11.123c0.033,0.046,0.074,0.091,0.111,0.138l-0.136,0.154c-2.735,3.172-5.397,5.688-7.075,5.688 c-0.838,0-1.312-0.583-0.438-2.079l8.096-14.187h-3.793l-6.747,11.779c-2.881,2.626-5.104,4.084-5.835,3.756 c-0.947-0.401,0-1.823,0.475-2.625l7.402-12.91h-3.793l-6.036,10.446c-0.098-0.061-0.196-0.123-0.288-0.162l-0.255,0.292 c-2.735,3.172-5.397,5.688-7.075,5.688c-0.838,0-1.312-0.583-0.438-2.079l6.127-10.722h-2.152c0.146-1.605-1.494-3.83-3.975-3.83 c-2.042,0-4.887,1.605-6.491,4.376l-3.846,6.637c-0.195-0.151-0.394-0.285-0.577-0.364l-0.255,0.292 c-2.735,3.172-6.236,5.688-8.897,5.688c-2.334,0-3.721-1.459-1.971-4.521l3.902-6.783c2.188-3.756,6.054-3.136,3.791,0.802 l-0.547,0.948h3.101l0.547-0.948c2.042-3.501,0.073-6.127-3.026-6.127c-3.063,0-5.508,1.605-7.111,4.376l-3.77,6.467 c-0.119-0.077-0.236-0.146-0.348-0.194l-0.255,0.292c-2.735,3.172-6.236,5.688-8.897,5.688c-2.335,0-3.721-1.459-1.971-4.521 l0.365-0.657c2.443,1.021,7.039,0.547,9.883-4.376l0.547-0.948c2.042-3.501,0.073-6.127-3.027-6.127 c-3.062,0-5.507,1.605-7.11,4.376l-3.976,6.819c-2.371,4.048-0.328,7.768,4.157,7.768c3.341,0,6.657-2.023,9.442-4.635 c-0.098,2.646,1.865,4.635,5.141,4.635C134.433,304.078,137.509,302.338,140.161,300.002z M198.19,290.439 c2.188-3.756,6.054-3.136,3.791,0.802l-0.547,0.948c-1.822,3.1-4.267,3.027-5.688,2.516L198.19,290.439z M143.999,299.666 l5.288-9.227c2.042-3.538,6.09-2.626,4.229,0.802l-2.953,5.18c-2.297,3.609-4.56,5.323-6.127,5.323 C143.599,301.744,143.124,301.161,143.999,299.666z M119.815,290.439c2.188-3.756,6.054-3.136,3.791,0.802l-0.547,0.948 c-1.822,3.1-4.267,3.027-5.688,2.516L119.815,290.439z"/>
    <path fill="#FFFFFF" d="M248.399,304.078c4.303,0,8.571-3.354,11.706-7.002c-0.254-0.511-0.91-1.094-1.422-1.312l-0.254,0.292 c-2.736,3.172-6.236,5.688-8.899,5.688c-2.334,0-3.721-1.459-1.971-4.521l0.365-0.657c2.444,1.021,7.038,0.547,9.883-4.376 l0.547-0.948c2.043-3.501,0.074-6.127-3.027-6.127c-3.061,0-5.505,1.605-7.11,4.376l-3.693,6.336 c-0.037-0.019-0.077-0.048-0.113-0.063l-0.256,0.292c-2.734,3.172-5.396,5.688-7.074,5.688c-0.839,0-1.312-0.583-0.438-2.079 l5.47-9.591c1.642-2.881,0.073-4.96-2.042-4.96c-1.643,0-3.393,0.912-5.288,2.881l6.054-10.54h-3.793l-10.697,18.56 c-0.147-0.104-0.297-0.192-0.434-0.251l-0.256,0.292c-2.735,3.172-5.396,5.688-7.075,5.688c-0.838,0-1.312-0.583-0.438-2.079 l8.133-14.187h3.101l1.095-1.823h-3.137l3.574-6.2h-3.793l-3.574,6.2h-3.428l-1.094,1.823h3.463l-7.622,13.204 c-1.604,2.808-0.474,5.396,2.589,5.396c1.885,0,3.941-1.216,5.962-2.975l-1.504,2.61h3.83l5.762-10.029 c5.835-7.33,8.425-6.382,6.783-3.574l-4.923,8.571c-1.604,2.808-0.475,5.396,2.589,5.396c2.305,0,4.864-1.812,7.304-4.221 C243.365,302.297,245.295,304.078,248.399,304.078z M251.462,290.439c2.188-3.756,6.055-3.136,3.793,0.802l-0.547,0.948 c-1.824,3.1-4.268,3.027-5.69,2.516L251.462,290.439z"/>
    <path fill="#FFFFFF" d="M363.417,295.765l-0.256,0.292c-2.732,3.172-5.396,5.688-7.074,5.688c-0.838,0-1.312-0.583-0.438-2.079 l12.838-22.209h-3.793l-5.58,9.628c-0.656-1.058-1.896-1.97-3.465-1.97c-2.043,0-4.887,1.605-6.492,4.376l-3.711,6.406 c-0.08-0.047-0.162-0.101-0.236-0.133l-0.256,0.292c-2.734,3.172-5.396,5.688-7.074,5.688c-0.84,0-1.312-0.583-0.438-2.079 l5.469-9.591c1.643-2.881,0.074-4.96-2.041-4.96c-1.643,0-3.355,0.875-5.252,2.845l1.422-2.479h-3.793l-6.061,10.487 c-0.123-0.081-0.246-0.153-0.361-0.203l-0.256,0.292c-2.734,3.172-5.396,5.688-7.074,5.688c-0.838,0-1.312-0.583-0.438-2.079 l6.127-10.722h-2.152c0.146-1.604-1.494-3.83-3.975-3.83c-2.043,0-4.889,1.605-6.492,4.376l-3.666,6.329l-0.207,0.235 c-2.734,3.172-5.396,5.688-7.074,5.688c-0.838,0-1.312-0.583-0.438-2.079l3.793-6.637c1.312-2.298,0.691-3.646-0.547-5.142 l-2.115-2.554c-0.547-0.692-0.547-1.458,0.219-2.188l-1.969-2.151c-2.152,1.934-2.334,4.084-0.986,5.835l0.33,0.438 c-1.678,2.371-3.939,5.58-6.42,8.497c0.074,0.107,0.164,0.215,0.258,0.321c-3.125,3.593-5.781,5.918-8.762,7.191l4.812-8.242 h-3.793l-0.4,0.657c-2.006,3.537-4.305,6.054-7.258,6.054c-2.59,0-3.062-2.589-0.803-6.455l1.059-1.859 c0.691,0.108,1.387,0.183,2.15,0.183c13.494,0,20.021-18.052,8.135-18.052c-2.08,0-4.561,1.459-6.273,4.449l-5.908,10.175 c-2.225-1.167-3.391-3.282-3.391-5.397c0-1.75,0.803-3.501,2.441-4.776l-1.238-2.226c-2.699,1.934-3.902,4.522-3.902,7.075 c0,3.027,1.715,5.944,4.777,7.549l-1.131,1.97c-2.662,4.595-2.188,9.7,3.174,9.7c1.604,0,2.953-0.474,4.121-1.204l-0.986,1.715 c-5.141,1.567-8.314,3.646-8.314,6.49c0,3.647,5.58,4.413,8.314-0.255l2.918-4.996c3.939-1.239,7.805-3.938,11.963-8.752 c-0.059-0.117-0.143-0.237-0.236-0.356c1.684-1.979,3.113-3.889,5.971-7.775l0.51,0.62c0.475,0.62,0.656,1.386,0.219,2.152 l-4.012,6.963c-1.605,2.808-0.475,5.396,2.59,5.396c1.906,0,3.988-1.244,6.033-3.036c-0.045,1.745,1.148,3.036,3.311,3.036 c1.531,0,3.428-0.984,5.25-2.479c0.184,1.459,1.352,2.479,3.283,2.479c1.816,0,3.791-1.129,5.742-2.785l-1.398,2.421h3.828 l5.799-10.103c5.799-7.257,8.389-6.309,6.746-3.501l-4.922,8.571c-1.604,2.808-0.475,5.396,2.588,5.396 c2.018,0,4.227-1.388,6.381-3.346c-0.201,1.901,1.008,3.346,3.295,3.346c1.531,0,3.428-0.984,5.252-2.479 c0.182,1.459,1.35,2.479,3.281,2.479c3.137,0,6.746-3.354,9.883-7.002C364.585,296.566,363.929,295.982,363.417,295.765z M285.455,281.614c1.131-1.933,2.371-2.771,3.43-2.771c6.018,0,1.787,12.253-8.133,12.253h-0.766L285.455,281.614z M277.396,310.205c-0.801,1.422-2.078,1.204-2.078,0.184c0-0.985,0.875-2.115,3.793-3.246L277.396,310.205z M317.089,296.421 c-2.299,3.609-4.559,5.323-6.127,5.323c-0.84,0-1.312-0.583-0.438-2.079l5.287-9.227c2.043-3.538,6.09-2.626,4.23,0.802 L317.089,296.421z M353.791,296.201c-2.299,3.756-4.633,5.543-6.236,5.543c-0.838,0-1.312-0.583-0.438-2.079l5.287-9.227 c2.043-3.538,6.09-2.626,4.23,0.802h0.035L353.791,296.201z"/>
    <path fill="#FFFFFF" d="M236.713,331.764l-0.255,0.293c-2.734,3.172-5.396,5.688-7.074,5.688c-0.84,0-1.312-0.583-0.438-2.079 l5.471-9.591c1.642-2.881,0.072-4.96-2.043-4.96c-1.642,0-3.354,0.875-5.251,2.845l1.422-2.479h-3.793l-6.111,10.574 c-0.166-0.119-0.332-0.226-0.484-0.291l-0.256,0.293c-1.713,1.858-3.829,2.771-5.725,2.808l3.573-6.163 c2.297-3.976,0.183-7.73-3.392-7.73c-2.918,0-5.178,1.167-7.367,4.96l-1.86,3.245l-1.626,2.781 c-0.117-0.075-0.234-0.146-0.343-0.192l-0.255,0.293c-3.137,3.608-5.799,5.942-8.789,7.221l10.395-17.797h-3.793l-6.709,11.67 c-2.918,2.698-5.179,4.193-5.908,3.865c-0.948-0.4,0-1.823,0.474-2.625l7.403-12.91h-3.793l-6.051,10.47 c-0.113-0.071-0.227-0.142-0.332-0.187l-0.255,0.293c-2.735,3.172-5.397,5.688-7.075,5.688c-0.838,0-1.312-0.583-0.438-2.079 l5.47-9.591c1.642-2.881,0.073-4.96-2.042-4.96c-1.641,0-3.355,0.875-5.251,2.845l1.423-2.479h-3.794l-6.062,10.486 c-0.123-0.081-0.246-0.153-0.36-0.203l-0.255,0.293c-2.734,3.172-5.396,5.688-7.075,5.688c-0.838,0-1.312-0.583-0.438-2.079 l6.128-10.721h-2.152c0.146-1.604-1.495-3.83-3.976-3.83c-2.041,0-4.887,1.605-6.49,4.377l-3.918,6.763 c-0.26-0.235-0.559-0.417-0.831-0.49l-0.255,0.293c-2.735,3.172-6.09,5.688-9.848,5.688c-2.588,0-4.156-2.589-1.896-6.455 l1.058-1.859c0.693,0.108,1.387,0.184,2.151,0.184c4.048,0,8.644-2.08,11.634-7.295c1.057-1.859,1.531-3.609,1.531-5.104 c0-3.429-2.225-5.652-5.032-5.652c-2.079,0-4.559,1.459-6.272,4.449l-5.908,10.175c-2.225-1.167-3.393-3.282-3.393-5.397 c0-1.75,0.803-3.501,2.443-4.776l-1.24-2.226c-2.699,1.935-3.902,4.521-3.902,7.075c0,3.026,1.715,5.944,4.777,7.549l-1.13,1.971 c-2.661,4.595-1.094,9.699,4.267,9.699c4.242,0,7.354-1.889,9.969-4.372c-0.826,2.384,0.374,4.372,3.059,4.372 c1.532,0,3.428-0.984,5.252-2.479c0.182,1.459,1.35,2.479,3.281,2.479c1.816,0,3.792-1.129,5.742-2.783l-1.398,2.42h3.829 l5.798-10.103c5.799-7.258,8.389-6.31,6.748-3.502l-4.923,8.568c-1.604,2.809-0.474,5.396,2.589,5.396 c2.041,0,4.282-1.425,6.465-3.423c-0.455,2.086,0.508,3.423,2.397,3.423c1.824,0,3.901-1.531,5.616-3.062l-2.079,3.574 c-5.142,1.53-8.351,3.646-8.351,6.49c0,3.647,5.58,4.413,8.313-0.255l2.917-4.996c3.171-0.998,6.297-2.965,9.562-6.195 c-0.523,5.297,6.533,6.505,10.787,1.126h0.838c1.385,0,3.26-0.523,4.953-1.455l-2.55,4.41h3.83l5.798-10.103 c5.799-7.258,8.389-6.31,6.747-3.502l-4.923,8.571c-1.604,2.809-0.475,5.396,2.59,5.396c3.137,0,6.746-3.354,9.883-7.002 C237.88,332.566,237.224,331.982,236.713,331.764z M142.326,317.614c1.13-1.933,2.371-2.771,3.428-2.771 c1.423,0,2.079,0.947,2.079,2.334c0,3.538-4.303,9.919-10.211,9.919h-0.766L142.326,317.614z M155.681,332.421 c-2.297,3.609-4.559,5.323-6.127,5.323c-0.838,0-1.312-0.583-0.438-2.079l5.288-9.227c2.042-3.537,6.09-2.625,4.229,0.803 L155.681,332.421z M184.532,346.204c-0.803,1.423-2.079,1.204-2.079,0.185c0-0.985,0.912-2.115,3.829-3.246L184.532,346.204z M210.06,332.02h-0.184c-1.24,0-2.225,1.021-2.225,2.262c0,0.475,0.146,0.911,0.365,1.275l-0.037,0.073 c-1.786,3.062-6.127,2.479-3.865-1.459l2.881-4.996l1.823-3.101c2.663-4.521,6.309-2.734,4.012,1.204L210.06,332.02z"/>
    <path fill="#FFFFFF" d="M324.621,333.077c-0.219-0.583-0.875-1.167-1.422-1.312l-0.256,0.293c-1.387,1.641-3.064,3.1-4.559,4.12 c1.203-3.61,0.947-9.153,3.281-14.004l-2.846-1.532c-1.566,2.151-4.996,7.111-8.424,11.123c0.006,0.01,0.016,0.018,0.021,0.025 c-0.016-0.007-0.031-0.02-0.047-0.025l-0.254,0.293c-2.736,3.172-5.396,5.688-7.076,5.688c-0.838,0-1.641-0.839-1.641-2.553v-1.568 c2.662,0.328,5.471-1.423,7.258-4.521l1.021-1.75c3.535-6.054-2.227-8.061-6.092-4.521l5.396-9.373h-3.793l-10.816,18.767 c-0.229-0.195-0.475-0.364-0.693-0.459l-0.256,0.293c-2.734,3.172-6.236,5.688-8.898,5.688c-2.334,0-3.719-1.459-1.969-4.521 l3.9-6.783c2.189-3.756,6.055-3.136,3.793,0.803l-0.547,0.948h3.102l0.547-0.948c2.041-3.501,0.072-6.127-3.027-6.127 c-3.062,0-5.508,1.605-7.111,4.377l-3.732,6.404c-0.078-0.047-0.16-0.101-0.234-0.133l-0.256,0.293 c-2.734,3.172-5.396,5.688-7.074,5.688c-0.84,0-1.312-0.583-0.438-2.079l8.096-14.186h-3.793l-6.746,11.779 c-2.883,2.625-5.105,4.084-5.836,3.756c-0.947-0.4,0-1.823,0.475-2.625l7.402-12.91h-3.793l-7.365,12.744 c-0.82,0.746-1.658,1.413-2.449,1.952c1.203-3.61,0.947-9.153,3.281-14.004l-2.844-1.532c-1.568,2.151-10.321,13.75-13.75,17.761 c0.327,0.474,0.876,0.948,1.423,1.313c2.15-2.48,9.372-11.779,10.723-13.566c-1.496,3.938-0.693,11.014-4.305,11.014 c-1.275,0-1.787-1.387-1.787-1.387l-2.37,1.24c0,0,0.692,3.062,4.157,3.062c0.365,0,0.693-0.036,1.059-0.072 c0.035,0,0.072-0.036,0.107-0.036c1.928-0.255,3.842-1.143,5.631-2.379c-0.012,1.542,0.92,2.487,2.51,2.487 c2.076,0,4.412-1.896,6.234-3.646c-0.363,2.043,0.838,3.646,3.246,3.646c2.355,0,4.979-1.893,7.467-4.38 c0.033,2.52,1.975,4.38,5.145,4.38c3.078,0,6.137-1.72,8.775-4.031l-2.113,3.668h3.83l4.34-7.55v3.026 c0,3.245,0.619,4.887,3.682,4.887c3.137,0,6.748-3.354,9.885-7.002c-0.006-0.011-0.018-0.021-0.021-0.034 c0.016,0.013,0.031,0.023,0.047,0.034c2.152-2.479,4.049-5.142,5.396-6.929c-1.494,3.938-0.691,11.014-4.303,11.014 c-1.275,0-1.787-1.387-1.787-1.387l-2.371,1.24c0,0,0.693,3.062,4.158,3.062c0.363,0,0.691-0.036,1.059-0.072 c0.035,0,0.07-0.036,0.107-0.036C317.947,339.458,321.777,336.396,324.621,333.077z M299.433,330.086l1.094-1.896 c4.377-6.091,7.367-4.413,6.018-2.115l-1.822,3.136C303.589,331.181,300.271,332.566,299.433,330.086z"/>
    <path fill="#FFFFFF" d="M324.474,335.665c-1.24,0-2.189,0.984-2.189,2.226s0.949,2.188,2.189,2.188 c1.238,0,2.225-0.947,2.225-2.188S325.712,335.665,324.474,335.665z"/>
    <polygon fill="#FFFFFF" points="324.656,334.171 328.486,334.171 340.373,313.456 336.582,313.456 	"/>
  </g>
  <g>
    <path fill="#FFFFFF" d="M80.412,277.581c0,0.293-0.058,0.587-0.169,0.879c-0.113,0.295-0.282,0.56-0.507,0.797 c-0.226,0.236-0.503,0.428-0.829,0.574c-0.327,0.147-0.694,0.221-1.1,0.221c-0.451,0-0.886-0.084-1.303-0.253 c-0.417-0.171-0.771-0.412-1.064-0.729c-0.25-0.293-0.44-0.643-0.575-1.049c-0.136-0.406-0.203-0.834-0.203-1.285 c0-0.855,0.151-1.646,0.457-2.368c0.304-0.722,0.737-1.363,1.302-1.928c0.248-0.248,0.529-0.479,0.846-0.694 c0.315-0.213,0.614-0.394,0.896-0.541c0.281-0.146,0.523-0.264,0.727-0.354c0.203-0.09,0.328-0.146,0.373-0.169l1.353,1.996 c-0.249,0.09-0.524,0.209-0.829,0.354c-0.305,0.147-0.592,0.327-0.861,0.541c-0.271,0.214-0.496,0.468-0.678,0.761 c-0.18,0.293-0.281,0.633-0.304,1.016c0.653,0,1.229,0.191,1.725,0.575C80.164,276.308,80.412,276.86,80.412,277.581z M88.278,277.581c0,0.293-0.057,0.587-0.17,0.879c-0.112,0.293-0.281,0.559-0.506,0.796c-0.227,0.236-0.502,0.429-0.83,0.574 c-0.327,0.147-0.693,0.221-1.1,0.221c-0.451,0-0.885-0.084-1.302-0.253c-0.417-0.17-0.772-0.411-1.065-0.728 c-0.248-0.293-0.439-0.643-0.574-1.049s-0.203-0.834-0.203-1.285c0-0.855,0.152-1.646,0.457-2.368 c0.304-0.722,0.738-1.363,1.302-1.928c0.248-0.248,0.528-0.479,0.847-0.693c0.314-0.214,0.613-0.394,0.896-0.541 c0.282-0.146,0.524-0.265,0.728-0.354s0.327-0.146,0.372-0.169l1.353,1.996c-0.248,0.09-0.523,0.209-0.828,0.354 c-0.305,0.147-0.592,0.327-0.863,0.541s-0.496,0.468-0.676,0.761c-0.182,0.293-0.282,0.632-0.305,1.016 c0.653,0,1.229,0.191,1.725,0.575C88.03,276.308,88.278,276.86,88.278,277.581z"/>
  </g>
  <g>
    <path fill="#FFFFFF" d="M353.439,336.523c0-0.294,0.057-0.588,0.168-0.88c0.113-0.294,0.283-0.559,0.508-0.795 c0.227-0.237,0.502-0.43,0.828-0.575c0.328-0.146,0.693-0.22,1.1-0.22c0.451,0,0.887,0.085,1.303,0.253 c0.418,0.17,0.771,0.412,1.064,0.729c0.25,0.293,0.441,0.644,0.576,1.048c0.135,0.406,0.203,0.834,0.203,1.286 c0,0.855-0.152,1.646-0.457,2.367s-0.738,1.364-1.303,1.928c-0.248,0.248-0.529,0.479-0.848,0.693 c-0.312,0.215-0.611,0.395-0.895,0.541c-0.281,0.146-0.523,0.266-0.729,0.355c-0.203,0.089-0.324,0.146-0.371,0.17l-1.354-1.996 c0.248-0.09,0.523-0.209,0.828-0.355c0.305-0.146,0.592-0.327,0.863-0.541c0.27-0.215,0.496-0.469,0.676-0.762 c0.182-0.293,0.283-0.631,0.305-1.014c-0.654,0-1.229-0.192-1.725-0.576C353.687,337.797,353.439,337.243,353.439,336.523z M345.572,336.523c0-0.294,0.057-0.588,0.17-0.88c0.113-0.294,0.281-0.559,0.506-0.795c0.227-0.237,0.504-0.43,0.83-0.575 c0.326-0.146,0.693-0.22,1.1-0.22c0.451,0,0.885,0.085,1.303,0.253c0.416,0.17,0.771,0.412,1.064,0.729 c0.248,0.293,0.439,0.644,0.574,1.048c0.137,0.406,0.203,0.834,0.203,1.286c0,0.855-0.152,1.646-0.457,2.367 c-0.303,0.722-0.738,1.364-1.301,1.928c-0.248,0.248-0.529,0.479-0.846,0.693c-0.318,0.214-0.615,0.395-0.896,0.541 c-0.281,0.146-0.523,0.266-0.729,0.355c-0.203,0.089-0.326,0.146-0.371,0.17l-1.355-1.996c0.25-0.09,0.525-0.209,0.83-0.355 c0.305-0.146,0.592-0.327,0.861-0.541c0.271-0.215,0.496-0.469,0.678-0.762c0.18-0.293,0.281-0.631,0.305-1.014 c-0.652,0-1.229-0.192-1.727-0.576C345.82,337.797,345.572,337.243,345.572,336.523z"/>
  </g>
</svg>
